<svg width="25" height="25" viewBox="0 0 25 25" fill="none" xmlns="http://www.w3.org/2000/svg">
<path d="M10 6.25C10 5.58696 10.2634 4.95107 10.7322 4.48223C11.2011 4.01339 11.837 3.75 12.5 3.75C13.163 3.75 13.7989 4.01339 14.2678 4.48223C14.7366 4.95107 15 5.58696 15 6.25V7.2375C18.615 8.3125 21.25 11.6613 21.25 15.625C21.25 15.7908 21.1842 15.9497 21.0669 16.0669C20.9497 16.1842 20.7908 16.25 20.625 16.25H4.375C4.20924 16.25 4.05027 16.1842 3.93306 16.0669C3.81585 15.9497 3.75 15.7908 3.75 15.625C3.74952 13.7403 4.35759 11.9058 5.48372 10.3945C6.60986 8.88326 8.19386 7.77599 10 7.2375V6.25ZM13.125 10.625C13.6525 10.625 14.175 10.63 14.71 10.8225C15.2262 11.0075 15.7975 11.3863 16.355 12.2225C16.4006 12.2908 16.4591 12.3494 16.5273 12.3951C16.5955 12.4407 16.6721 12.4725 16.7526 12.4886C16.8331 12.5047 16.916 12.5047 16.9965 12.4888C17.077 12.4728 17.1536 12.4412 17.2219 12.3956C17.2902 12.3501 17.3488 12.2915 17.3945 12.2233C17.4401 12.1551 17.4719 12.0785 17.488 11.998C17.504 11.9175 17.5041 11.8347 17.4882 11.7541C17.4722 11.6736 17.4406 11.597 17.395 11.5287C16.7013 10.4887 15.92 9.92875 15.1325 9.64625C14.3813 9.375 13.6625 9.375 13.15 9.375H13.125C12.9592 9.375 12.8003 9.44085 12.6831 9.55806C12.5658 9.67527 12.5 9.83424 12.5 10C12.5 10.1658 12.5658 10.3247 12.6831 10.4419C12.8003 10.5592 12.9592 10.625 13.125 10.625ZM4.375 17.5C3.87772 17.5 3.40081 17.6975 3.04917 18.0492C2.69754 18.4008 2.5 18.8777 2.5 19.375C2.5 19.8723 2.69754 20.3492 3.04917 20.7008C3.40081 21.0525 3.87772 21.25 4.375 21.25H20.625C21.1223 21.25 21.5992 21.0525 21.9508 20.7008C22.3025 20.3492 22.5 19.8723 22.5 19.375C22.5 18.8777 22.3025 18.4008 21.9508 18.0492C21.5992 17.6975 21.1223 17.5 20.625 17.5H4.375Z" fill="#303030"/>
</svg>
