<?xml version="1.0" encoding="UTF-8"?>
<svg xmlns="http://www.w3.org/2000/svg">
  <defs>
    <linearGradient id="qa-menu" x1="8" y1="5" x2="38" y2="38" gradientUnits="userSpaceOnUse">
      <stop stop-color="#FFB020"/><stop offset="1" stop-color="#FF6B35"/>
    </linearGradient>
    <linearGradient id="qa-branch" x1="8" y1="6" x2="38" y2="38" gradientUnits="userSpaceOnUse">
      <stop stop-color="#FF6B8A"/><stop offset="1" stop-color="#FF8A3D"/>
    </linearGradient>
    <linearGradient id="qa-promo" x1="8" y1="7" x2="39" y2="39" gradientUnits="userSpaceOnUse">
      <stop stop-color="#9B6BFF"/><stop offset="1" stop-color="#FF4D8D"/>
    </linearGradient>
    <linearGradient id="qa-banner" x1="7" y1="8" x2="40" y2="39" gradientUnits="userSpaceOnUse">
      <stop stop-color="#35B8FF"/><stop offset="1" stop-color="#4475FF"/>
    </linearGradient>
    <linearGradient id="qa-report" x1="8" y1="8" x2="38" y2="38" gradientUnits="userSpaceOnUse">
      <stop stop-color="#24C68A"/><stop offset="1" stop-color="#0EA5A7"/>
    </linearGradient>
    <linearGradient id="qa-finance" x1="8" y1="8" x2="38" y2="38" gradientUnits="userSpaceOnUse">
      <stop stop-color="#14B8A6"/><stop offset="1" stop-color="#0EA5E9"/>
    </linearGradient>
    <linearGradient id="qa-customer" x1="8" y1="7" x2="39" y2="39" gradientUnits="userSpaceOnUse">
      <stop stop-color="#FFB020"/><stop offset="1" stop-color="#FF5C7A"/>
    </linearGradient>
    <linearGradient id="qa-team" x1="7" y1="7" x2="40" y2="40" gradientUnits="userSpaceOnUse">
      <stop stop-color="#4F7CFF"/><stop offset="1" stop-color="#8B5CF6"/>
    </linearGradient>
  </defs>

  <symbol id="menu" viewBox="0 0 48 48">
    <circle cx="24" cy="25" r="17" fill="#FFF4E5"/>
    <path d="M10 24c2.5-7.6 8.1-11.5 14-11.5S35.5 16.4 38 24" fill="url(#qa-menu)" />
    <path d="M9 25h30c-1.1 6.7-7.3 11-15 11S10.1 31.7 9 25Z" fill="#FFFFFF" stroke="#F59E0B" stroke-width="1.5"/>
    <path d="M18 19h12" stroke="#fff" stroke-width="2.2" stroke-linecap="round"/>
    <circle cx="24" cy="31" r="2.5" fill="#FFB020"/>
  </symbol>

  <symbol id="branch" viewBox="0 0 48 48">
    <rect x="8" y="16" width="32" height="24" rx="5" fill="#FFF0F3"/>
    <path d="M9 17h30l-3-9H12l-3 9Z" fill="url(#qa-branch)"/>
    <path d="M9 17c1.7 3.5 4.7 3.5 6.4 0 1.8 3.5 4.8 3.5 6.6 0 1.8 3.5 4.8 3.5 6.6 0 1.7 3.5 4.7 3.5 6.4 0" fill="none" stroke="#FF6B7E" stroke-width="2"/>
    <path d="M13 21h22v19H13z" fill="#FFFFFF"/>
    <path d="M20 28h8v12h-8z" fill="#FFD6DE"/>
    <rect x="15" y="24" width="3.5" height="3.5" rx="1" fill="#FF8A3D"/>
    <rect x="29.5" y="24" width="3.5" height="3.5" rx="1" fill="#FF8A3D"/>
  </symbol>

  <symbol id="promo" viewBox="0 0 48 48">
    <circle cx="24" cy="24" r="18" fill="#F5EEFF"/>
    <path d="M10 22h9l11-10 8 8-10 10v8H18l-8-8v-8Z" fill="url(#qa-promo)"/>
    <path d="M31 13l5 5" stroke="#fff" stroke-width="2" stroke-linecap="round"/>
    <circle cx="17" cy="25" r="2.7" fill="#fff"/>
    <path d="m28.5 22 .9 2.4 2.5.1-2 1.5.7 2.4-2.1-1.3-2.1 1.3.7-2.4-2-1.5 2.5-.1.9-2.4Z" fill="#FFD44D"/>
  </symbol>

  <symbol id="banner" viewBox="0 0 48 48">
    <circle cx="24" cy="24" r="18" fill="#EAF7FF"/>
    <rect x="9" y="11" width="30" height="26" rx="5" fill="#FFFFFF" stroke="#5ABEFF" stroke-width="1.5"/>
    <circle cx="18" cy="18" r="3" fill="#FFD34D"/>
    <path d="M11 33l8-8 5 5 5-7 8 10H11Z" fill="url(#qa-banner)"/>
    <path d="M13 14h8" stroke="#B6DEFF" stroke-width="2" stroke-linecap="round"/>
    <path d="M13 38h22" stroke="#4E8BFF" stroke-width="2.2" stroke-linecap="round"/>
  </symbol>

  <symbol id="report" viewBox="0 0 48 48">
    <circle cx="24" cy="24" r="18" fill="#E8FBF5"/>
    <rect x="10" y="10" width="28" height="29" rx="5" fill="#FFFFFF" stroke="#25BE91" stroke-width="1.5"/>
    <path d="M16 31v-7M23 31V17M30 31v-11" stroke="url(#qa-report)" stroke-width="4" stroke-linecap="round"/>
    <path d="M15 35h19" stroke="#A7E6D1" stroke-width="2" stroke-linecap="round"/>
    <circle cx="16" cy="19" r="2" fill="#24C68A"/>
    <circle cx="23" cy="14" r="2" fill="#0EA5A7"/>
  </symbol>

  <symbol id="finance" viewBox="0 0 48 48">
    <circle cx="24" cy="24" r="18" fill="#E8FAFF"/>
    <rect x="9" y="14" width="30" height="22" rx="5" fill="#FFFFFF" stroke="#22AFC4" stroke-width="1.5"/>
    <path d="M9 20h30" stroke="#3AB8D6" stroke-width="3"/>
    <circle cx="31" cy="27" r="5" fill="url(#qa-finance)"/>
    <path d="M31 24.5v5M29 26.2c.7-.9 3-.9 3 .5 0 1.4-3.2 1-3.2 2.2 0 1.4 2.8 1.5 3.5.4" fill="none" stroke="#fff" stroke-width="1.2" stroke-linecap="round"/>
    <rect x="14" y="25" width="8" height="3" rx="1.5" fill="#BFEFF5"/>
  </symbol>

  <symbol id="customer" viewBox="0 0 48 48">
    <circle cx="24" cy="24" r="18" fill="#FFF3E8"/>
    <circle cx="18" cy="19" r="6" fill="url(#qa-customer)"/>
    <path d="M9 35c1.2-6.3 4.7-9.4 9-9.4s7.8 3.1 9 9.4" fill="#FFD8C0"/>
    <circle cx="32" cy="20" r="5" fill="#FF8B5B"/>
    <path d="M25 35c1-5 3.6-7.5 7-7.5 3.3 0 5.9 2.5 7 7.5" fill="#FFE7D9"/>
    <circle cx="18" cy="19" r="2" fill="#fff"/>
    <circle cx="32" cy="20" r="1.7" fill="#fff"/>
  </symbol>

  <symbol id="team" viewBox="0 0 48 48">
    <circle cx="24" cy="24" r="18" fill="#EEF2FF"/>
    <circle cx="17" cy="18" r="5" fill="#6E8BFF"/>
    <circle cx="31" cy="18" r="5" fill="#9A79FF"/>
    <path d="M9 34c1-5.2 3.6-7.8 8-7.8s7 2.6 8 7.8" fill="#DDE5FF"/>
    <path d="M23 34c1-5.2 3.6-7.8 8-7.8s7 2.6 8 7.8" fill="#E5DDFF"/>
    <rect x="18.5" y="25" width="11" height="8" rx="3" fill="#FFFFFF" stroke="#6E8BFF" stroke-width="1.4"/>
    <path d="M21.5 25v-2a2.5 2.5 0 0 1 5 0v2" fill="none" stroke="#6E8BFF" stroke-width="1.5"/>
    <circle cx="24" cy="29" r="1.4" fill="#6E8BFF"/>
  </symbol>
</svg>
