<svg width="20" height="20" viewBox="0 0 20 20" fill="none" xmlns="http://www.w3.org/2000/svg">
<path fill-rule="evenodd" clip-rule="evenodd" d="M14.6735 17.5L12.6118 6.5083L3.3335 7.35163V14.8333C3.3335 15.7666 3.3335 16.2333 3.51516 16.59C3.67495 16.9036 3.92991 17.1585 4.2435 17.3183C4.60016 17.5 5.06683 17.5 6.00016 17.5H14.6735ZM11.2502 12.525C11.2502 14.3233 9.46683 15.5866 8.68933 16.0525C8.58184 16.117 8.45885 16.151 8.3335 16.151C8.20815 16.151 8.08515 16.117 7.97766 16.0525C7.20016 15.5866 5.41683 14.3233 5.41683 12.5241C5.41683 10.76 6.83016 9.5833 8.3335 9.5833C9.88933 9.5833 11.2502 10.76 11.2502 12.525Z" fill="#00A637"/>
<path d="M3.51516 3.41C3.3335 3.76667 3.3335 4.23333 3.3335 5.16667V5.67833L18.3252 4.315C18.3093 3.90833 18.2668 3.63667 18.1518 3.41C17.992 3.09641 17.7371 2.84145 17.4235 2.68167C17.0668 2.5 16.6002 2.5 15.6668 2.5H6.00016C5.06683 2.5 4.60016 2.5 4.2435 2.68167C3.92991 2.84145 3.67495 3.09641 3.51516 3.41ZM18.3335 5.98833L14.2793 6.35667L16.3677 17.4958C16.861 17.485 17.1702 17.4475 17.4235 17.3183C17.7371 17.1585 17.992 16.9036 18.1518 16.59C18.3335 16.2333 18.3335 15.7667 18.3335 14.8333V5.98833Z" fill="#00A637"/>
<path d="M8.33333 13.3332C8.79357 13.3332 9.16667 12.9601 9.16667 12.4998C9.16667 12.0396 8.79357 11.6665 8.33333 11.6665C7.8731 11.6665 7.5 12.0396 7.5 12.4998C7.5 12.9601 7.8731 13.3332 8.33333 13.3332Z" fill="#00A637"/>
</svg>
