<svg width="20" height="20" viewBox="0 0 20 20" fill="none" xmlns="http://www.w3.org/2000/svg">
<path d="M5 5.16667C5 4.23333 5 3.76667 5.18167 3.41C5.34145 3.09641 5.59641 2.84145 5.91 2.68167C6.26667 2.5 6.73333 2.5 7.66667 2.5H12.3333C13.2667 2.5 13.7333 2.5 14.09 2.68167C14.4036 2.84145 14.6585 3.09641 14.8183 3.41C15 3.76667 15 4.23333 15 5.16667V16.2542C15 16.6592 15 16.8617 14.9158 16.9725C14.8795 17.0207 14.8331 17.0604 14.7798 17.0889C14.7266 17.1174 14.6678 17.134 14.6075 17.1375C14.4683 17.1458 14.3 17.0333 13.9633 16.8092L10 14.1667L6.03667 16.8083C5.7 17.0333 5.53167 17.1458 5.39167 17.1375C5.33153 17.1339 5.2729 17.1172 5.21981 17.0887C5.16672 17.0603 5.12045 17.0206 5.08417 16.9725C5 16.8617 5 16.6592 5 16.2542V5.16667Z" fill="#1E1E1E" stroke="#1E1E1E" stroke-width="1.5" stroke-linecap="round" stroke-linejoin="round"/>
</svg>
