<svg width="20" height="20" viewBox="0 0 20 20" fill="none" xmlns="http://www.w3.org/2000/svg">
<path d="M16.6151 10.8333C16.4296 12.302 15.7608 13.6672 14.7141 14.7139C13.6673 15.7607 12.3021 16.4295 10.8334 16.615V18.3333H9.16675V16.615C7.69809 16.4295 6.33286 15.7607 5.28611 14.7139C4.23936 13.6672 3.57057 12.302 3.38508 10.8333H1.66675V9.16663H3.38508C3.57057 7.69796 4.23936 6.33274 5.28611 5.28599C6.33286 4.23924 7.69809 3.57045 9.16675 3.38496V1.66663H10.8334V3.38496C12.3021 3.57045 13.6673 4.23924 14.7141 5.28599C15.7608 6.33274 16.4296 7.69796 16.6151 9.16663H18.3334V10.8333H16.6151ZM10.0001 15C11.3262 15 12.5979 14.4732 13.5356 13.5355C14.4733 12.5978 15.0001 11.326 15.0001 9.99996C15.0001 8.67388 14.4733 7.40211 13.5356 6.46443C12.5979 5.52674 11.3262 4.99996 10.0001 4.99996C8.674 4.99996 7.40223 5.52674 6.46455 6.46443C5.52687 7.40211 5.00008 8.67388 5.00008 9.99996C5.00008 11.326 5.52687 12.5978 6.46455 13.5355C7.40223 14.4732 8.674 15 10.0001 15ZM10.0001 12.5C10.6631 12.5 11.299 12.2366 11.7678 11.7677C12.2367 11.2989 12.5001 10.663 12.5001 9.99996C12.5001 9.33692 12.2367 8.70103 11.7678 8.23219C11.299 7.76335 10.6631 7.49996 10.0001 7.49996C9.33704 7.49996 8.70115 7.76335 8.23231 8.23219C7.76347 8.70103 7.50008 9.33692 7.50008 9.99996C7.50008 10.663 7.76347 11.2989 8.23231 11.7677C8.70115 12.2366 9.33704 12.5 10.0001 12.5Z" fill="#FFCD29"/>
</svg>
